<svg xmlns="http://www.w3.org/2000/svg" xmlns:xlink="http://www.w3.org/1999/xlink" width="367" height="712" viewBox="0 0 367 712">
  <defs>
    <clipPath id="clip-path">
      <path id="Path_74572" data-name="Path 74572" d="M0,183.692,80.244,0,187.964,42.332l49.9,173.459L159.373,346.045,99.751,357.916,0,192.863Z" transform="translate(0 0)" fill="#fff"/>
    </clipPath>
  </defs>
  <g id="Group_50575" data-name="Group 50575" transform="translate(-23 -4238)">
    <rect id="Rectangle_14512" data-name="Rectangle 14512" width="367" height="712" rx="12" transform="translate(23 4238)" fill="#fff"/>
    <g id="Group_50574" data-name="Group 50574" transform="translate(0 -3)">
      <g id="Ellipse_287" data-name="Ellipse 287" transform="translate(119 4294)" fill="#f7f7f7" stroke="#ffdede" stroke-width="2" opacity="0.8">
        <circle cx="88" cy="88" r="88" stroke="none"/>
        <circle cx="88" cy="88" r="87" fill="none"/>
      </g>
      <circle id="Ellipse_288" data-name="Ellipse 288" cx="81" cy="81" r="81" transform="translate(126 4301)" fill="#f40f34"/>
      <text id="People_s_resilience" data-name="People’s resilience" transform="translate(149 4324)" fill="#fff" font-size="20" font-family="RobotoCondensed-Bold, Roboto Condensed" font-weight="700"><tspan x="-33" y="21">People’s </tspan><tspan x="-39" y="43">resilience</tspan></text>
      <text id="Agency_Services_Structural_System_Capabilities" data-name="Agency, Services, Structural &amp; System
Capabilities" transform="translate(126 4376)" fill="#fff" font-size="16" font-family="RobotoCondensed-Regular, Roboto Condensed" opacity="0.8"><tspan x="-54" y="17">Agency, Services, </tspan><tspan x="-61" y="33">Structural &amp; System</tspan><tspan x="-37" y="49">Capabilities</tspan></text>
    </g>
    <g id="Group_50573" data-name="Group 50573" transform="translate(4836.403 1974.185) rotate(90)">
      <g id="Mask_Group_49967" data-name="Mask Group 49967" transform="matrix(0.999, 0.035, -0.035, 0.999, 2438.837, 4446.403)" clip-path="url(#clip-path)">
        <g id="Ellipse_296" data-name="Ellipse 296" transform="translate(-184.155 0.816)" fill="none" stroke="#cbcbcb" stroke-width="5" opacity="0.8">
          <circle cx="184.155" cy="184.155" r="184.155" stroke="none"/>
          <circle cx="184.155" cy="184.155" r="181.655" fill="none"/>
        </g>
      </g>
      <circle id="Ellipse_295" data-name="Ellipse 295" cx="52.433" cy="52.433" r="52.433" transform="translate(2525.236 4692.964)" fill="#ffdede"/>
      <circle id="Ellipse_294" data-name="Ellipse 294" cx="47.957" cy="47.957" r="47.957" transform="translate(2529.712 4697.44)" fill="#080808"/>
      <circle id="Ellipse_290" data-name="Ellipse 290" cx="52.433" cy="52.433" r="52.433" transform="translate(2522.039 4464.049)" fill="#ffdede"/>
      <circle id="Ellipse_291" data-name="Ellipse 291" cx="52.433" cy="52.433" r="52.433" transform="translate(2550.174 4581.064)" fill="#ffdede"/>
      <circle id="Ellipse_289" data-name="Ellipse 289" cx="47.957" cy="47.957" r="47.957" transform="translate(2526.515 4468.525)" fill="#080808"/>
      <circle id="Ellipse_292" data-name="Ellipse 292" cx="47.957" cy="47.957" r="47.957" transform="translate(2554.65 4585.541)" fill="#080808"/>
      <circle id="Ellipse_297" data-name="Ellipse 297" cx="7.993" cy="7.993" r="7.993" transform="matrix(0.999, 0.035, -0.035, 0.999, 2498.866, 4455.668)" fill="#fadadf"/>
      <circle id="Ellipse_298" data-name="Ellipse 298" cx="7.993" cy="7.993" r="7.993" transform="matrix(0.999, 0.035, -0.035, 0.999, 2507.04, 4785.586)" fill="#fadadf"/>
      <g id="Group_50295" data-name="Group 50295" transform="translate(2497.416 4559.321) rotate(-41)">
        <g id="Group_50293" data-name="Group 50293" transform="translate(0 0)">
          <path id="Rectangle_14508" data-name="Rectangle 14508" d="M5.755,0H19.183a0,0,0,0,1,0,0V5.755a0,0,0,0,1,0,0H0a0,0,0,0,1,0,0v0A5.755,5.755,0,0,1,5.755,0Z" transform="translate(0 2.9)" fill="#222"/>
          <path id="Path_74573" data-name="Path 74573" d="M0,0V11.555L6.39,5.747Z" transform="translate(16.625 0)" fill="#222"/>
        </g>
        <g id="Group_50294" data-name="Group 50294" transform="translate(0 12.172)">
          <path id="Rectangle_14508-2" data-name="Rectangle 14508" d="M0,0H19.183a0,0,0,0,1,0,0V0a5.755,5.755,0,0,1-5.755,5.755H0a0,0,0,0,1,0,0V0A0,0,0,0,1,0,0Z" transform="translate(3.832 2.9)" fill="#f40f34"/>
          <path id="Path_74573-2" data-name="Path 74573" d="M6.39,11.555V0L0,5.808Z" transform="translate(0 0)" fill="#f40f34"/>
        </g>
      </g>
      <g id="Group_50297" data-name="Group 50297" transform="translate(2516.883 4685.93) rotate(39)">
        <g id="Group_50293-2" data-name="Group 50293" transform="translate(0 0)">
          <path id="Rectangle_14508-3" data-name="Rectangle 14508" d="M5.755,0H19.183a0,0,0,0,1,0,0V5.755a0,0,0,0,1,0,0H0a0,0,0,0,1,0,0v0A5.755,5.755,0,0,1,5.755,0Z" transform="translate(0 2.9)" fill="#222"/>
          <path id="Path_74573-3" data-name="Path 74573" d="M0,0V11.555L6.39,5.747Z" transform="translate(16.625 0)" fill="#222"/>
        </g>
        <g id="Group_50294-2" data-name="Group 50294" transform="translate(0 12.172)">
          <path id="Rectangle_14508-4" data-name="Rectangle 14508" d="M0,0H19.183a0,0,0,0,1,0,0V0a5.755,5.755,0,0,1-5.755,5.755H0a0,0,0,0,1,0,0V0A0,0,0,0,1,0,0Z" transform="translate(3.832 2.9)" fill="#f40f34"/>
          <path id="Path_74573-4" data-name="Path 74573" d="M6.39,11.555V0L0,5.808Z" transform="translate(0 0)" fill="#f40f34"/>
        </g>
      </g>
      <g id="Group_50296" data-name="Group 50296" transform="translate(2522.203 4621.634)">
        <g id="Group_50293-3" data-name="Group 50293" transform="translate(0 0)">
          <path id="Rectangle_14508-5" data-name="Rectangle 14508" d="M5.755,0H19.183a0,0,0,0,1,0,0V5.755a0,0,0,0,1,0,0H0a0,0,0,0,1,0,0v0A5.755,5.755,0,0,1,5.755,0Z" transform="translate(0 2.9)" fill="#222"/>
          <path id="Path_74573-5" data-name="Path 74573" d="M1668,2967.815v11.555l6.39-5.808Z" transform="translate(-1651.375 -2967.815)" fill="#222"/>
        </g>
        <g id="Group_50294-3" data-name="Group 50294" transform="translate(0 12.172)">
          <path id="Rectangle_14508-6" data-name="Rectangle 14508" d="M0,0H19.183a0,0,0,0,1,0,0V0a5.755,5.755,0,0,1-5.755,5.755H0a0,0,0,0,1,0,0V0A0,0,0,0,1,0,0Z" transform="translate(3.832 2.9)" fill="#f40f34"/>
          <path id="Path_74573-6" data-name="Path 74573" d="M1674.39,2979.37v-11.555l-6.39,5.808Z" transform="translate(-1668 -2967.815)" fill="#f40f34"/>
        </g>
      </g>
    </g>
    <text id="Thought" transform="translate(90.654 4553.782)" fill="#fff" font-size="16" font-family="RobotoCondensed-Regular, Roboto Condensed"><tspan x="-26" y="0">Thought</tspan></text>
    <text id="Transformation" transform="translate(203.654 4581.782)" fill="#fff" font-size="16" font-family="RobotoCondensed-Regular, Roboto Condensed"><tspan x="-48" y="0">Transformation</tspan></text>
    <text id="Action" transform="translate(321.654 4553.782)" fill="#fff" font-size="16" font-family="RobotoCondensed-Regular, Roboto Condensed"><tspan x="-20" y="0">Action</tspan></text>
    <g id="Rectangle_14509" data-name="Rectangle 14509" transform="translate(34 4642.108)" fill="#facdd4" stroke="#f09fab" stroke-width="1" stroke-dasharray="4 4">
      <rect width="346" height="80" rx="12" stroke="none"/>
      <rect x="0.5" y="0.5" width="345" height="79" rx="11.5" fill="none"/>
    </g>
    <g id="Rectangle_14510" data-name="Rectangle 14510" transform="translate(34 4734.165)" fill="#facdd4" stroke="#f59caa" stroke-width="1" stroke-dasharray="4 4">
      <rect width="346" height="80" rx="12" stroke="none"/>
      <rect x="0.5" y="0.5" width="345" height="79" rx="11.5" fill="none"/>
    </g>
    <g id="Rectangle_14511" data-name="Rectangle 14511" transform="translate(34 4824.349)" fill="#facdd4" stroke="#f09fab" stroke-width="1" stroke-dasharray="4 4">
      <rect width="346" height="80" rx="12" stroke="none"/>
      <rect x="0.5" y="0.5" width="345" height="79" rx="11.5" fill="none"/>
    </g>
    <text id="Narratives_Evidence_Solutions" data-name="Narratives Evidence Solutions" transform="translate(67 4655.034)" fill="#222" font-size="24" font-family="RobotoCondensed-Regular, Roboto Condensed"><tspan x="-93" y="25">Narratives Evidence </tspan><tspan x="-44" y="51">Solutions</tspan></text>
    <text id="Policy_Shaping_System_Strengthening_Capacity_Building" data-name="Policy Shaping, System Strengthening, Capacity Building" transform="translate(39.831 4833.349)" fill="#222" font-size="24" font-family="RobotoCondensed-Regular, Roboto Condensed"><tspan x="-109" y="25">Policy Shaping, System </tspan><tspan x="-153" y="51">Strengthening, Capacity Building</tspan></text>
    <text id="Collaborations_Shaping_Investments_Agency_Building" data-name="Collaborations, Shaping Investments, Agency Building" transform="translate(64 4744.349)" fill="#222" font-size="24" font-family="RobotoCondensed-Regular, Roboto Condensed"><tspan x="-112" y="25">Collaborations, Shaping </tspan><tspan x="-138" y="51">Investments, Agency Building</tspan></text>
  </g>
</svg>
