<svg xmlns="http://www.w3.org/2000/svg" width="71.34" height="63.83" viewBox="0 0 71.34 63.83">
  <g id="Group_49900" data-name="Group 49900" transform="translate(0.3 0.3)">
    <g id="Group_49901" data-name="Group 49901" transform="translate(0.7 0.7)">
      <path id="Path_74120" data-name="Path 74120" d="M50.391,33.038,60.774,22.314s3.06-2.163,5.752,0a4.471,4.471,0,0,1,.974,5.509C66.185,30.552,53.95,43.956,53.95,43.956a13.472,13.472,0,0,1-9.6,3.656c-6.191-.048-17.986,0-17.986,0a8.911,8.911,0,0,0-6.087,3.663L6.672,38.157l.191-.537s6.728-12.868,22.788-7.8l16.6.049a4.728,4.728,0,0,1,4.144,4.777,4.269,4.269,0,0,1-3.705,4.338h-16.4" transform="translate(1.288 6.174)" fill="none" stroke="#939393" stroke-width="2"/>
      <path id="Path_74121" data-name="Path 74121" d="M23.807,48.911h0a9.441,9.441,0,0,1-13.351.24L.7,39.74l6.555-6.795Z" transform="translate(-0.7 10.032)" fill="none" stroke="#939393" stroke-linejoin="round" stroke-width="2"/>
      <rect id="Rectangle_14180" data-name="Rectangle 14180" width="6.788" height="17.377" transform="translate(19.113 11.753)" fill="none" stroke="#939393" stroke-width="2"/>
      <rect id="Rectangle_14181" data-name="Rectangle 14181" width="6.788" height="23.216" transform="translate(30.41 5.914)" fill="none" stroke="#939393" stroke-width="2"/>
      <rect id="Rectangle_14182" data-name="Rectangle 14182" width="6.788" height="29.13" transform="translate(41.336)" fill="none" stroke="#939393" stroke-width="2"/>
    </g>
  </g>
</svg>
