<svg xmlns="http://www.w3.org/2000/svg" xmlns:xlink="http://www.w3.org/1999/xlink" width="73.192" height="62.813" viewBox="0 0 73.192 62.813">
  <defs>
    <clipPath id="clip-path">
      <rect id="Rectangle_14183" data-name="Rectangle 14183" width="73.192" height="62.813" fill="#939393"/>
    </clipPath>
  </defs>
  <g id="Group_49903" data-name="Group 49903" transform="translate(0 0)">
    <g id="Group_49902" data-name="Group 49902" transform="translate(0 0)" clip-path="url(#clip-path)">
      <path id="Path_74122" data-name="Path 74122" d="M24.833,48.828c0-3.85-.019-7.7.008-11.55a14.649,14.649,0,0,0-.933-5.311,41.793,41.793,0,0,1-2.869-15.681c.016-.786-.25-1.005-1.013-.906q-2.345.3-4.705.482c-.58.044-.663.579-1,.8-1.8,1.192-1.024,2.668-.572,4.135,1.351,4.371,2.712,8.74,4.017,13.126.237.8.578,1.2,1.429,1.07a3.837,3.837,0,0,1,.577-.006c2.5-.008,2.5-.008,2.245,2.544A11.044,11.044,0,0,1,.012,35.9c.033-.714.293-.888.963-.925,1.016-.057,2.278.487,2.983-.264.619-.658.7-1.833.992-2.788,1.317-4.3,2.618-8.608,3.945-12.906A1.343,1.343,0,0,0,8.565,17.4a3.663,3.663,0,1,1,5.589-4.687,1.318,1.318,0,0,0,1.419.656c1.565-.188,3.134-.358,4.705-.489.621-.052.882-.291.881-.926,0-.923.039-1.848.112-2.769A4.194,4.194,0,0,1,26.4,5.1c.771.139.955-.05,1.175-.714a4.145,4.145,0,0,1,5.639-2.645,1.035,1.035,0,0,0,1.353-.319,4.186,4.186,0,0,1,6.729.591.861.861,0,0,0,1.177.445A4.238,4.238,0,0,1,48.029,6.47c.044.8-.351,1.891.191,2.3.441.331,1.27-.592,1.988-.839a10.343,10.343,0,0,1,2.95-.47c.709-.032.956.26.918.954-.063,1.152-.041,2.309-.1,3.463-.035.674.193,1,.9,1.013a15.93,15.93,0,0,1,1.838.175,2.991,2.991,0,0,0,3.142-.958,3.472,3.472,0,0,1,5.059.155,3.544,3.544,0,0,1-.028,5.08,1.632,1.632,0,0,0-.447,2.078q2.28,7.265,4.446,14.564c.22.736.527,1.127,1.35,1.016a10.819,10.819,0,0,1,1.5-.012c1.5,0,1.5,0,1.442,1.555a11.031,11.031,0,0,1-22.057-.463c0-.852.233-1.12,1.105-1.114,2.858.019,2.878-.009,3.728-2.753,1.364-4.408,2.686-8.828,4.058-13.233.206-.662-.081-1.044-.333-1.623-.854-1.959-2.542-1.754-4.127-1.927-.229-.025-.465-.007-.69-.05-.717-.139-.954.16-.941.865.026,1.424.012,2.849-.027,4.273a7.51,7.51,0,0,1-2.568,5.6c-.77.694-1.484,1.452-2.209,2.2-3.091,3.176-3.991,7.125-4.227,11.4-.4,7.267-.6,14.537-.673,21.812,0,.416.263,1.059-.32,1.2a5.559,5.559,0,0,1-1.943-.008c-.313-.04-.221-.445-.219-.7.108-9.006.087-18.019,1.174-26.979.445-3.654,2.636-6.412,4.96-9.068a3.369,3.369,0,0,1,.566-.575c2.513-1.756,3.2-4.209,3.016-7.157-.15-2.336-.013-4.695.06-7.042.029-.962-.269-1.095-1.045-.637a6.144,6.144,0,0,0-3.233,5.257c-.052,1.034.29,2.275-.172,3.049-.44.737-1.817.514-2.764.8a17.867,17.867,0,0,0-6.281,3.06c-1.083.874-1.278-.511-1.839-.874-.667-.433-.02-.776.29-1.042a18.171,18.171,0,0,1,6.959-3.491c.3-.087.591-.171.889-.248a.523.523,0,0,0,.4-.608c-.015-.39-.289-.4-.571-.374a4.219,4.219,0,0,1-2.348-.457c-.417-.219-.611.007-.876.263-2.114,2.049-4.3,2.116-6.395.178a.807.807,0,0,0-1.089-.212,3.966,3.966,0,0,1-4.444-.441.856.856,0,0,0-1.2.02,3.712,3.712,0,0,1-3.3.557c-.993-.305-.993.152-.986.88a38.064,38.064,0,0,0,2.341,13,23.614,23.614,0,0,1,1.522,8.8c-.142,7.7-.212,15.4-.247,23.1-.006,1.074-.521,1.056-1.28,1.042-.739-.013-1.286.043-1.268-1.049.069-4.31.029-8.622.029-12.932h.238m-13.7-11.345c-2.539,0-5.079.013-7.618-.01-.72-.006-.929.164-.734.938a8.559,8.559,0,0,0,16.5.156c.244-.9.032-1.123-.876-1.1-2.423.054-4.848.018-7.272.02m50.95.007c-2.425,0-4.851.059-7.273-.027-1.106-.039-1.1.389-.861,1.21a8.557,8.557,0,0,0,16.469-.262c.2-.756.036-.941-.716-.932-2.539.033-5.08.013-7.619.011M11.2,20.93h-.277q-2.055,6.7-4.108,13.405c-.174.571.175.648.617.647q3.63,0,7.261,0c.548,0,.787-.146.573-.751-.3-.831-.528-1.684-.785-2.527Q12.836,26.318,11.2,20.93m51.011-.2a3.442,3.442,0,0,0-.262.465c-1.327,4.33-2.633,8.667-3.986,12.989-.268.853.21.8.744.8,2.267,0,4.534-.029,6.8.016.892.017,1.043-.245.777-1.075-.913-2.851-1.756-5.724-2.633-8.586-.458-1.492-.931-2.979-1.44-4.606M39.423,8.719h.037c0-1.38.01-2.762,0-4.142a1.792,1.792,0,1,0-3.545-.024q-.048,4.2-.03,8.4a1.788,1.788,0,0,0,1.749,2,1.819,1.819,0,0,0,1.786-1.977c.026-1.419.007-2.838.007-4.258m-6.052.225H33.4c0-1.075.026-2.152-.007-3.226a1.773,1.773,0,0,0-1.7-1.821,1.739,1.739,0,0,0-1.818,1.812c-.053,2.073-.074,4.147-.046,6.22a1.734,1.734,0,0,0,1.751,1.878,1.8,1.8,0,0,0,1.786-1.867c.039-1,.008-2,.008-3m8.583.17H41.93c0,.919-.053,1.843.013,2.758a1.734,1.734,0,0,0,1.811,1.7,1.64,1.64,0,0,0,1.712-1.662c.068-1.8.1-3.6.047-5.4a1.692,1.692,0,0,0-1.74-1.759,1.778,1.778,0,0,0-1.809,1.83c-.049.84-.01,1.686-.01,2.528m-14.6,1.362a10.485,10.485,0,0,0-.114-1.606,1.6,1.6,0,0,0-1.736-1.353,1.578,1.578,0,0,0-1.655,1.315,9.549,9.549,0,0,0-.1,3.315,1.6,1.6,0,0,0,1.658,1.46,1.669,1.669,0,0,0,1.814-1.424,12.146,12.146,0,0,0,.135-1.708m36.077,4.37a1.128,1.128,0,0,0-1.182-1.2A1.08,1.08,0,0,0,61.086,14.9a1.177,1.177,0,0,0,2.348-.049M12.355,14.8a1.15,1.15,0,0,0-1.169-1.163,1.106,1.106,0,0,0-1.195,1.239,1.068,1.068,0,0,0,1.2,1.1c.722-.007,1.093-.456,1.162-1.176" transform="translate(0 0)" fill="#939393"/>
    </g>
  </g>
</svg>
